<svg id="visual" viewBox="0 0 900 600" width="900" height="600" xmlns="http://www.w3.org/2000/svg" xmlns:xlink="http://www.w3.org/1999/xlink" version="1.1"><path d="M0 151L11.5 151C23 151 46 151 69 158C92 165 115 179 138.2 185C161.3 191 184.7 189 207.8 178C231 167 254 147 277 139C300 131 323 135 346 145C369 155 392 171 415.2 178C438.3 185 461.7 183 484.8 161C508 139 531 97 554 94C577 91 600 127 623 135C646 143 669 123 692.2 122C715.3 121 738.7 139 761.8 137C785 135 808 113 831 99C854 85 877 79 888.5 76L900 73L900 0L888.5 0C877 0 854 0 831 0C808 0 785 0 761.8 0C738.7 0 715.3 0 692.2 0C669 0 646 0 623 0C600 0 577 0 554 0C531 0 508 0 484.8 0C461.7 0 438.3 0 415.2 0C392 0 369 0 346 0C323 0 300 0 277 0C254 0 231 0 207.8 0C184.7 0 161.3 0 138.2 0C115 0 92 0 69 0C46 0 23 0 11.5 0L0 0Z" fill="#f3f4f6"></path><path d="M0 199L11.5 196C23 193 46 187 69 197C92 207 115 233 138.2 241C161.3 249 184.7 239 207.8 224C231 209 254 189 277 186C300 183 323 197 346 212C369 227 392 243 415.2 251C438.3 259 461.7 259 484.8 231C508 203 531 147 554 141C577 135 600 179 623 197C646 215 669 207 692.2 205C715.3 203 738.7 207 761.8 195C785 183 808 155 831 137C854 119 877 111 888.5 107L900 103L900 71L888.5 74C877 77 854 83 831 97C808 111 785 133 761.8 135C738.7 137 715.3 119 692.2 120C669 121 646 141 623 133C600 125 577 89 554 92C531 95 508 137 484.8 159C461.7 181 438.3 183 415.2 176C392 169 369 153 346 143C323 133 300 129 277 137C254 145 231 165 207.8 176C184.7 187 161.3 189 138.2 183C115 177 92 163 69 156C46 149 23 149 11.5 149L0 149Z" fill="#d8dbea"></path><path d="M0 241L11.5 237C23 233 46 225 69 231C92 237 115 257 138.2 263C161.3 269 184.7 261 207.8 253C231 245 254 237 277 238C300 239 323 249 346 264C369 279 392 299 415.2 301C438.3 303 461.7 287 484.8 258C508 229 531 187 554 182C577 177 600 209 623 222C646 235 669 229 692.2 227C715.3 225 738.7 227 761.8 216C785 205 808 181 831 165C854 149 877 141 888.5 137L900 133L900 101L888.5 105C877 109 854 117 831 135C808 153 785 181 761.8 193C738.7 205 715.3 201 692.2 203C669 205 646 213 623 195C600 177 577 133 554 139C531 145 508 201 484.8 229C461.7 257 438.3 257 415.2 249C392 241 369 225 346 210C323 195 300 181 277 184C254 187 231 207 207.8 222C184.7 237 161.3 247 138.2 239C115 231 92 205 69 195C46 185 23 191 11.5 194L0 197Z" fill="#c5c0db"></path><path d="M0 289L11.5 298C23 307 46 325 69 333C92 341 115 339 138.2 341C161.3 343 184.7 349 207.8 353C231 357 254 359 277 352C300 345 323 329 346 338C369 347 392 381 415.2 379C438.3 377 461.7 339 484.8 314C508 289 531 277 554 273C577 269 600 273 623 277C646 281 669 285 692.2 300C715.3 315 738.7 341 761.8 337C785 333 808 299 831 272C854 245 877 225 888.5 215L900 205L900 131L888.5 135C877 139 854 147 831 163C808 179 785 203 761.8 214C738.7 225 715.3 223 692.2 225C669 227 646 233 623 220C600 207 577 175 554 180C531 185 508 227 484.8 256C461.7 285 438.3 301 415.2 299C392 297 369 277 346 262C323 247 300 237 277 236C254 235 231 243 207.8 251C184.7 259 161.3 267 138.2 261C115 255 92 235 69 229C46 223 23 231 11.5 235L0 239Z" fill="#bbaacc"></path><path d="M0 337L11.5 348C23 359 46 381 69 384C92 387 115 371 138.2 371C161.3 371 184.7 387 207.8 399C231 411 254 419 277 407C300 395 323 363 346 365C369 367 392 403 415.2 404C438.3 405 461.7 371 484.8 350C508 329 531 321 554 322C577 323 600 333 623 334C646 335 669 327 692.2 335C715.3 343 738.7 367 761.8 371C785 375 808 359 831 332C854 305 877 267 888.5 248L900 229L900 203L888.5 213C877 223 854 243 831 270C808 297 785 331 761.8 335C738.7 339 715.3 313 692.2 298C669 283 646 279 623 275C600 271 577 267 554 271C531 275 508 287 484.8 312C461.7 337 438.3 375 415.2 377C392 379 369 345 346 336C323 327 300 343 277 350C254 357 231 355 207.8 351C184.7 347 161.3 341 138.2 339C115 337 92 339 69 331C46 323 23 305 11.5 296L0 287Z" fill="#bbaacc"></path><path d="M0 361L11.5 374C23 387 46 413 69 421C92 429 115 419 138.2 420C161.3 421 184.7 433 207.8 443C231 453 254 461 277 452C300 443 323 417 346 422C369 427 392 463 415.2 470C438.3 477 461.7 455 484.8 436C508 417 531 401 554 402C577 403 600 421 623 415C646 409 669 379 692.2 385C715.3 391 738.7 433 761.8 446C785 459 808 443 831 421C854 399 877 371 888.5 357L900 343L900 227L888.5 246C877 265 854 303 831 330C808 357 785 373 761.8 369C738.7 365 715.3 341 692.2 333C669 325 646 333 623 332C600 331 577 321 554 320C531 319 508 327 484.8 348C461.7 369 438.3 403 415.2 402C392 401 369 365 346 363C323 361 300 393 277 405C254 417 231 409 207.8 397C184.7 385 161.3 369 138.2 369C115 369 92 385 69 382C46 379 23 357 11.5 346L0 335Z" fill="#c5c0db"></path><path d="M0 415L11.5 427C23 439 46 463 69 472C92 481 115 475 138.2 474C161.3 473 184.7 477 207.8 484C231 491 254 501 277 497C300 493 323 475 346 483C369 491 392 525 415.2 529C438.3 533 461.7 507 484.8 487C508 467 531 453 554 449C577 445 600 451 623 442C646 433 669 409 692.2 415C715.3 421 738.7 457 761.8 470C785 483 808 473 831 452C854 431 877 399 888.5 383L900 367L900 341L888.5 355C877 369 854 397 831 419C808 441 785 457 761.8 444C738.7 431 715.3 389 692.2 383C669 377 646 407 623 413C600 419 577 401 554 400C531 399 508 415 484.8 434C461.7 453 438.3 475 415.2 468C392 461 369 425 346 420C323 415 300 441 277 450C254 459 231 451 207.8 441C184.7 431 161.3 419 138.2 418C115 417 92 427 69 419C46 411 23 385 11.5 372L0 359Z" fill="#d8dbea"></path><path d="M0 601L11.5 601C23 601 46 601 69 601C92 601 115 601 138.2 601C161.3 601 184.7 601 207.8 601C231 601 254 601 277 601C300 601 323 601 346 601C369 601 392 601 415.2 601C438.3 601 461.7 601 484.8 601C508 601 531 601 554 601C577 601 600 601 623 601C646 601 669 601 692.2 601C715.3 601 738.7 601 761.8 601C785 601 808 601 831 601C854 601 877 601 888.5 601L900 601L900 365L888.5 381C877 397 854 429 831 450C808 471 785 481 761.8 468C738.7 455 715.3 419 692.2 413C669 407 646 431 623 440C600 449 577 443 554 447C531 451 508 465 484.8 485C461.7 505 438.3 531 415.2 527C392 523 369 489 346 481C323 473 300 491 277 495C254 499 231 489 207.8 482C184.7 475 161.3 471 138.2 472C115 473 92 479 69 470C46 461 23 437 11.5 425L0 413Z" fill="#f3f4f6"></path></svg>