<svg width="47" height="45" viewBox="0 0 47 45" fill="none" xmlns="http://www.w3.org/2000/svg">
<path d="M35.25 2.8125H11.75C6.88299 2.8125 2.9375 6.5901 2.9375 11.25V33.75C2.9375 38.4099 6.88299 42.1875 11.75 42.1875H35.25C40.117 42.1875 44.0625 38.4099 44.0625 33.75V11.25C44.0625 6.5901 40.117 2.8125 35.25 2.8125Z" fill="url(#paint0_radial_1571_388)"/>
<path d="M35.25 2.8125H11.75C6.88299 2.8125 2.9375 6.5901 2.9375 11.25V33.75C2.9375 38.4099 6.88299 42.1875 11.75 42.1875H35.25C40.117 42.1875 44.0625 38.4099 44.0625 33.75V11.25C44.0625 6.5901 40.117 2.8125 35.25 2.8125Z" fill="url(#paint1_radial_1571_388)"/>
<path d="M35.25 2.8125H11.75C6.88299 2.8125 2.9375 6.5901 2.9375 11.25V33.75C2.9375 38.4099 6.88299 42.1875 11.75 42.1875H35.25C40.117 42.1875 44.0625 38.4099 44.0625 33.75V11.25C44.0625 6.5901 40.117 2.8125 35.25 2.8125Z" fill="url(#paint2_radial_1571_388)"/>
<path d="M33.7812 14.7656C33.7812 15.9306 32.7948 16.875 31.5781 16.875C30.3614 16.875 29.375 15.9306 29.375 14.7656C29.375 13.6006 30.3614 12.6562 31.5781 12.6562C32.7948 12.6562 33.7812 13.6006 33.7812 14.7656Z" fill="white"/>
<path fill-rule="evenodd" clip-rule="evenodd" d="M23.5 29.5312C27.5558 29.5312 30.8438 26.3832 30.8438 22.5C30.8438 18.6168 27.5558 15.4688 23.5 15.4688C19.4442 15.4688 16.1562 18.6168 16.1562 22.5C16.1562 26.3832 19.4442 29.5312 23.5 29.5312ZM23.5 26.7188C25.9336 26.7188 27.9062 24.83 27.9062 22.5C27.9062 20.17 25.9336 18.2812 23.5 18.2812C21.0664 18.2812 19.0938 20.17 19.0938 22.5C19.0938 24.83 21.0664 26.7188 23.5 26.7188Z" fill="white"/>
<path fill-rule="evenodd" clip-rule="evenodd" d="M8.8125 22.6318C8.8125 17.6633 8.8125 15.179 9.74267 13.2814C10.5609 11.6121 11.8664 10.255 13.4723 9.40443C15.2978 8.4375 17.6877 8.4375 22.4672 8.4375H23.6051C28.3847 8.4375 30.7746 8.4375 32.6 9.40443C34.2059 10.255 35.5115 11.6121 36.3296 13.2814C37.2599 15.179 37.2599 17.6633 37.2599 22.6318V23.8146C37.2599 28.7831 37.2599 31.2674 36.3296 33.165C35.5115 34.8343 34.2059 36.1915 32.6 37.0419C30.7746 38.0089 28.3847 38.0089 23.6051 38.0089H22.4672C17.6877 38.0089 15.2978 38.0089 13.4723 37.0419C11.8664 36.1915 10.5609 34.8343 9.74267 33.165C8.8125 31.2674 8.8125 28.7831 8.8125 23.8146V22.6318ZM22.4672 11.3946H23.6051C26.0419 11.3946 27.6983 11.3969 28.9787 11.5057C30.226 11.6116 30.8638 11.8036 31.3087 12.0393C32.3792 12.6063 33.2495 13.5111 33.795 14.6238C34.0217 15.0863 34.2065 15.7493 34.3083 17.0459C34.4129 18.3769 34.4151 20.0987 34.4151 22.6318V23.8146C34.4151 26.3477 34.4129 28.0695 34.3083 29.4005C34.2065 30.6971 34.0217 31.3601 33.795 31.8226C33.2495 32.9354 32.3792 33.8401 31.3087 34.4071C30.8638 34.6428 30.226 34.8349 28.9787 34.9407C27.6983 35.0494 26.0419 35.0518 23.6051 35.0518H22.4672C20.0304 35.0518 18.3741 35.0494 17.0937 34.9407C15.8464 34.8349 15.2086 34.6428 14.7637 34.4071C13.6932 33.8401 12.8228 32.9354 12.2773 31.8226C12.0507 31.3601 11.866 30.6971 11.7641 29.4005C11.6595 28.0695 11.6572 26.3477 11.6572 23.8146V22.6318C11.6572 20.0987 11.6595 18.3769 11.7641 17.0459C11.866 15.7493 12.0507 15.0863 12.2773 14.6238C12.8228 13.5111 13.6932 12.6063 14.7637 12.0393C15.2086 11.8036 15.8464 11.6116 17.0937 11.5057C18.3741 11.3969 20.0304 11.3946 22.4672 11.3946Z" fill="white"/>
<defs>
<radialGradient id="paint0_radial_1571_388" cx="0" cy="0" r="1" gradientUnits="userSpaceOnUse" gradientTransform="translate(17.625 32.3438) rotate(-54.2022) scale(36.4095 36.944)">
<stop stop-color="#B13589"/>
<stop offset="0.79309" stop-color="#C62F94"/>
<stop offset="1" stop-color="#8A3AC8"/>
</radialGradient>
<radialGradient id="paint1_radial_1571_388" cx="0" cy="0" r="1" gradientUnits="userSpaceOnUse" gradientTransform="translate(16.1563 43.5938) rotate(-64.1725) scale(32.0273 32.9219)">
<stop stop-color="#E0E8B7"/>
<stop offset="0.444662" stop-color="#FB8A2E"/>
<stop offset="0.71474" stop-color="#E2425C"/>
<stop offset="1" stop-color="#E2425C" stop-opacity="0"/>
</radialGradient>
<radialGradient id="paint2_radial_1571_388" cx="0" cy="0" r="1" gradientUnits="userSpaceOnUse" gradientTransform="translate(0.734376 4.21875) rotate(-7.78848) scale(57.0734 11.7074)">
<stop offset="0.156701" stop-color="#406ADC"/>
<stop offset="0.467799" stop-color="#6A45BE"/>
<stop offset="1" stop-color="#6A45BE" stop-opacity="0"/>
</radialGradient>
</defs>
</svg>
