<svg width="64" height="65" viewBox="0 0 64 65" fill="none" xmlns="http://www.w3.org/2000/svg">
<path d="M39.9561 55.3552C41.3831 53.8619 55.0912 53.5637 55.0912 53.5637C55.0912 53.5637 52.4809 51.5656 52.8924 49.3823C53.3016 47.1969 64 44.653 64 44.653C64 44.653 54.4285 39.4266 55.9919 34.4068C55.9919 34.4068 42.4943 36.1906 42.4123 35.7034C42.3285 35.2159 55.3408 22.7281 55.3408 22.7281C44.7789 26.658 53.2782 11.6866 53.2782 11.6866C52.3036 12.2501 38.3187 20.1977 42.2486 9.63578C42.2486 9.63578 29.7609 22.6481 29.2734 22.5661C28.786 22.4841 30.5697 8.98657 30.5697 8.98657C25.5499 10.5481 20.3178 0.970703 20.3178 0.970703C20.3178 0.970703 17.7798 11.6749 15.5954 12.0861C13.4102 12.4954 11.414 9.88525 11.414 9.88525C11.414 9.88525 11.1156 23.5952 9.62152 25.0203C8.1273 26.4453 0.207904 25.3966 0.207904 25.3966C0.207904 25.3966 4.63791 32.6874 0.128906 38.6525L7.79296 42.2472L6.68674 45.1753C6.68674 45.1753 16.7309 47.3897 17.1578 47.8089C17.5837 48.23 19.7896 58.2791 19.7896 58.2791L22.7243 57.1777L26.3239 64.8485C32.2881 60.3397 39.5857 64.6595 39.5857 64.6595C39.5857 64.6595 38.5312 56.8483 39.9561 55.3552Z" fill="#E5462E"/>
<path d="M36.2386 42.5792V42.5753L23.4438 41.5225L22.391 28.7268H22.3872C22.3268 27.9958 21.6844 27.45 20.9525 27.5104C20.2195 27.5707 19.6746 28.2142 19.735 28.9451C19.737 28.9686 19.7409 28.9899 19.7438 29.0134L20.9359 43.5052L21.5089 43.4584L21.4623 44.0295L35.954 45.2227C35.9774 45.2247 35.9969 45.2286 36.0202 45.2304C36.7532 45.2909 37.3964 44.7468 37.4549 44.0139C37.5173 43.281 36.9716 42.6396 36.2386 42.5792Z" fill="#4A5769"/>
<path d="M34.235 30.7306C33.7155 30.2122 32.8724 30.2122 32.3529 30.7306C32.3344 30.7501 32.3168 30.7715 32.2992 30.791L32.2963 30.7871L6.01456 57.069C5.49515 57.5894 5.49515 58.4316 6.01456 58.9521C6.5341 59.4727 7.37625 59.4707 7.89679 58.9521L34.1784 32.6704L34.1764 32.6665C34.1959 32.6489 34.2154 32.6333 34.235 32.6138C34.7536 32.0933 34.7536 31.2511 34.235 30.7306Z" fill="#646C77"/>
</svg>
