<svg width="38" height="38" viewBox="0 0 38 38" fill="none" xmlns="http://www.w3.org/2000/svg">
<path d="M32.3792 32.3791H26.7488V23.56C26.7488 21.4573 26.7108 18.7498 23.8197 18.7498C20.8873 18.7498 20.4377 21.0425 20.4377 23.4048V32.3791H14.8073V14.2437H20.2128V16.7232H20.2888C21.3908 14.8422 23.4428 13.7148 25.6215 13.794C31.3278 13.794 32.3823 17.5465 32.3823 22.4326L32.3792 32.3759V32.3791ZM8.455 11.7642C7.5901 11.76 6.76176 11.4148 6.14988 10.8035C5.538 10.1922 5.19199 9.36424 5.187 8.49935C5.187 6.70702 6.66267 5.23136 8.455 5.23136C10.2473 5.23136 11.7198 6.70702 11.723 8.49935C11.723 10.2917 10.2473 11.7642 8.455 11.7642ZM11.2702 32.3791H5.6335V14.2437H11.2702V32.3791ZM35.1817 4.70667e-05H2.8025C2.06831 -0.00421724 1.3621 0.281435 0.83734 0.794929C0.312578 1.30842 0.0116681 2.00826 0 2.74237V35.2576C0.0116681 35.9917 0.312578 36.6915 0.83734 37.205C1.3621 37.7185 2.06831 38.0042 2.8025 37.9999H35.1848C35.9207 38.0059 36.6292 37.7212 37.1564 37.2077C37.6835 36.6942 37.9867 35.9934 38 35.2576V2.7392C37.9867 2.00399 37.6833 1.30385 37.156 0.791358C36.6286 0.278867 35.9201 -0.00442778 35.1848 0.00321349L35.1817 4.70667e-05Z" fill="#0A66C2"/>
</svg>
