<svg id="visual" viewBox="0 0 900 600" width="900" height="600" xmlns="http://www.w3.org/2000/svg" xmlns:xlink="http://www.w3.org/1999/xlink" version="1.1"><path d="M0 31L10.7 29C21.3 27 42.7 23 64.2 35C85.7 47 107.3 75 128.8 79C150.3 83 171.7 63 193 60C214.3 57 235.7 71 257 74C278.3 77 299.7 69 321.2 65C342.7 61 364.3 61 385.8 61C407.3 61 428.7 61 450 66C471.3 71 492.7 81 514.2 75C535.7 69 557.3 47 578.8 44C600.3 41 621.7 57 643 69C664.3 81 685.7 89 707 89C728.3 89 749.7 81 771.2 79C792.7 77 814.3 81 835.8 82C857.3 83 878.7 81 889.3 80L900 79L900 0L889.3 0C878.7 0 857.3 0 835.8 0C814.3 0 792.7 0 771.2 0C749.7 0 728.3 0 707 0C685.7 0 664.3 0 643 0C621.7 0 600.3 0 578.8 0C557.3 0 535.7 0 514.2 0C492.7 0 471.3 0 450 0C428.7 0 407.3 0 385.8 0C364.3 0 342.7 0 321.2 0C299.7 0 278.3 0 257 0C235.7 0 214.3 0 193 0C171.7 0 150.3 0 128.8 0C107.3 0 85.7 0 64.2 0C42.7 0 21.3 0 10.7 0L0 0Z" fill="#f7f8f9"></path><path d="M0 67L10.7 76C21.3 85 42.7 103 64.2 126C85.7 149 107.3 177 128.8 173C150.3 169 171.7 133 193 120C214.3 107 235.7 117 257 123C278.3 129 299.7 131 321.2 131C342.7 131 364.3 129 385.8 130C407.3 131 428.7 135 450 145C471.3 155 492.7 171 514.2 176C535.7 181 557.3 175 578.8 160C600.3 145 621.7 121 643 118C664.3 115 685.7 133 707 135C728.3 137 749.7 123 771.2 127C792.7 131 814.3 153 835.8 159C857.3 165 878.7 155 889.3 150L900 145L900 77L889.3 78C878.7 79 857.3 81 835.8 80C814.3 79 792.7 75 771.2 77C749.7 79 728.3 87 707 87C685.7 87 664.3 79 643 67C621.7 55 600.3 39 578.8 42C557.3 45 535.7 67 514.2 73C492.7 79 471.3 69 450 64C428.7 59 407.3 59 385.8 59C364.3 59 342.7 59 321.2 63C299.7 67 278.3 75 257 72C235.7 69 214.3 55 193 58C171.7 61 150.3 81 128.8 77C107.3 73 85.7 45 64.2 33C42.7 21 21.3 25 10.7 27L0 29Z" fill="#f5f6f8"></path><path d="M0 115L10.7 127C21.3 139 42.7 163 64.2 191C85.7 219 107.3 251 128.8 248C150.3 245 171.7 207 193 189C214.3 171 235.7 173 257 173C278.3 173 299.7 171 321.2 179C342.7 187 364.3 205 385.8 210C407.3 215 428.7 207 450 212C471.3 217 492.7 235 514.2 234C535.7 233 557.3 213 578.8 194C600.3 175 621.7 157 643 163C664.3 169 685.7 199 707 210C728.3 221 749.7 213 771.2 215C792.7 217 814.3 229 835.8 232C857.3 235 878.7 229 889.3 226L900 223L900 143L889.3 148C878.7 153 857.3 163 835.8 157C814.3 151 792.7 129 771.2 125C749.7 121 728.3 135 707 133C685.7 131 664.3 113 643 116C621.7 119 600.3 143 578.8 158C557.3 173 535.7 179 514.2 174C492.7 169 471.3 153 450 143C428.7 133 407.3 129 385.8 128C364.3 127 342.7 129 321.2 129C299.7 129 278.3 127 257 121C235.7 115 214.3 105 193 118C171.7 131 150.3 167 128.8 171C107.3 175 85.7 147 64.2 124C42.7 101 21.3 83 10.7 74L0 65Z" fill="#f4f5f7"></path><path d="M0 229L10.7 257C21.3 285 42.7 341 64.2 365C85.7 389 107.3 381 128.8 360C150.3 339 171.7 305 193 323C214.3 341 235.7 411 257 439C278.3 467 299.7 453 321.2 422C342.7 391 364.3 343 385.8 321C407.3 299 428.7 303 450 314C471.3 325 492.7 343 514.2 347C535.7 351 557.3 341 578.8 318C600.3 295 621.7 259 643 262C664.3 265 685.7 307 707 338C728.3 369 749.7 389 771.2 398C792.7 407 814.3 405 835.8 399C857.3 393 878.7 383 889.3 378L900 373L900 221L889.3 224C878.7 227 857.3 233 835.8 230C814.3 227 792.7 215 771.2 213C749.7 211 728.3 219 707 208C685.7 197 664.3 167 643 161C621.7 155 600.3 173 578.8 192C557.3 211 535.7 231 514.2 232C492.7 233 471.3 215 450 210C428.7 205 407.3 213 385.8 208C364.3 203 342.7 185 321.2 177C299.7 169 278.3 171 257 171C235.7 171 214.3 169 193 187C171.7 205 150.3 243 128.8 246C107.3 249 85.7 217 64.2 189C42.7 161 21.3 137 10.7 125L0 113Z" fill="#eff1f3"></path><path d="M0 577L10.7 564C21.3 551 42.7 525 64.2 519C85.7 513 107.3 527 128.8 530C150.3 533 171.7 525 193 532C214.3 539 235.7 561 257 558C278.3 555 299.7 527 321.2 527C342.7 527 364.3 555 385.8 561C407.3 567 428.7 551 450 551C471.3 551 492.7 567 514.2 571C535.7 575 557.3 567 578.8 552C600.3 537 621.7 515 643 505C664.3 495 685.7 497 707 497C728.3 497 749.7 495 771.2 499C792.7 503 814.3 513 835.8 512C857.3 511 878.7 499 889.3 493L900 487L900 371L889.3 376C878.7 381 857.3 391 835.8 397C814.3 403 792.7 405 771.2 396C749.7 387 728.3 367 707 336C685.7 305 664.3 263 643 260C621.7 257 600.3 293 578.8 316C557.3 339 535.7 349 514.2 345C492.7 341 471.3 323 450 312C428.7 301 407.3 297 385.8 319C364.3 341 342.7 389 321.2 420C299.7 451 278.3 465 257 437C235.7 409 214.3 339 193 321C171.7 303 150.3 337 128.8 358C107.3 379 85.7 387 64.2 363C42.7 339 21.3 283 10.7 255L0 227Z" fill="#e8eaee"></path><path d="M0 601L10.7 601C21.3 601 42.7 601 64.2 601C85.7 601 107.3 601 128.8 601C150.3 601 171.7 601 193 601C214.3 601 235.7 601 257 601C278.3 601 299.7 601 321.2 601C342.7 601 364.3 601 385.8 601C407.3 601 428.7 601 450 601C471.3 601 492.7 601 514.2 601C535.7 601 557.3 601 578.8 601C600.3 601 621.7 601 643 601C664.3 601 685.7 601 707 601C728.3 601 749.7 601 771.2 601C792.7 601 814.3 601 835.8 601C857.3 601 878.7 601 889.3 601L900 601L900 485L889.3 491C878.7 497 857.3 509 835.8 510C814.3 511 792.7 501 771.2 497C749.7 493 728.3 495 707 495C685.7 495 664.3 493 643 503C621.7 513 600.3 535 578.8 550C557.3 565 535.7 573 514.2 569C492.7 565 471.3 549 450 549C428.7 549 407.3 565 385.8 559C364.3 553 342.7 525 321.2 525C299.7 525 278.3 553 257 556C235.7 559 214.3 537 193 530C171.7 523 150.3 531 128.8 528C107.3 525 85.7 511 64.2 517C42.7 523 21.3 549 10.7 562L0 575Z" fill="#e0e3e8"></path></svg>