<svg id="visual" viewBox="0 0 900 600" width="900" height="600" xmlns="http://www.w3.org/2000/svg" xmlns:xlink="http://www.w3.org/1999/xlink" version="1.1"><path d="M0 85L13.7 78C27.3 71 54.7 57 82 62C109.3 67 136.7 91 163.8 95C191 99 218 83 245.2 77C272.3 71 299.7 75 327 78C354.3 81 381.7 83 409 84C436.3 85 463.7 85 491 90C518.3 95 545.7 105 573 104C600.3 103 627.7 91 654.8 86C682 81 709 83 736.2 79C763.3 75 790.7 65 818 71C845.3 77 872.7 99 886.3 110L900 121L900 0L886.3 0C872.7 0 845.3 0 818 0C790.7 0 763.3 0 736.2 0C709 0 682 0 654.8 0C627.7 0 600.3 0 573 0C545.7 0 518.3 0 491 0C463.7 0 436.3 0 409 0C381.7 0 354.3 0 327 0C299.7 0 272.3 0 245.2 0C218 0 191 0 163.8 0C136.7 0 109.3 0 82 0C54.7 0 27.3 0 13.7 0L0 0Z" fill="#f7f8f9"></path><path d="M0 151L13.7 145C27.3 139 54.7 127 82 134C109.3 141 136.7 167 163.8 169C191 171 218 149 245.2 139C272.3 129 299.7 131 327 130C354.3 129 381.7 125 409 123C436.3 121 463.7 121 491 130C518.3 139 545.7 157 573 156C600.3 155 627.7 135 654.8 133C682 131 709 147 736.2 146C763.3 145 790.7 127 818 130C845.3 133 872.7 157 886.3 169L900 181L900 119L886.3 108C872.7 97 845.3 75 818 69C790.7 63 763.3 73 736.2 77C709 81 682 79 654.8 84C627.7 89 600.3 101 573 102C545.7 103 518.3 93 491 88C463.7 83 436.3 83 409 82C381.7 81 354.3 79 327 76C299.7 73 272.3 69 245.2 75C218 81 191 97 163.8 93C136.7 89 109.3 65 82 60C54.7 55 27.3 69 13.7 76L0 83Z" fill="#f5f6f8"></path><path d="M0 211L13.7 215C27.3 219 54.7 227 82 237C109.3 247 136.7 259 163.8 255C191 251 218 231 245.2 232C272.3 233 299.7 255 327 262C354.3 269 381.7 261 409 263C436.3 265 463.7 277 491 284C518.3 291 545.7 293 573 277C600.3 261 627.7 227 654.8 217C682 207 709 221 736.2 218C763.3 215 790.7 195 818 203C845.3 211 872.7 247 886.3 265L900 283L900 179L886.3 167C872.7 155 845.3 131 818 128C790.7 125 763.3 143 736.2 144C709 145 682 129 654.8 131C627.7 133 600.3 153 573 154C545.7 155 518.3 137 491 128C463.7 119 436.3 119 409 121C381.7 123 354.3 127 327 128C299.7 129 272.3 127 245.2 137C218 147 191 169 163.8 167C136.7 165 109.3 139 82 132C54.7 125 27.3 137 13.7 143L0 149Z" fill="#f3f4f6"></path><path d="M0 337L13.7 351C27.3 365 54.7 393 82 400C109.3 407 136.7 393 163.8 382C191 371 218 363 245.2 371C272.3 379 299.7 403 327 429C354.3 455 381.7 483 409 476C436.3 469 463.7 427 491 412C518.3 397 545.7 409 573 408C600.3 407 627.7 393 654.8 393C682 393 709 407 736.2 421C763.3 435 790.7 449 818 466C845.3 483 872.7 503 886.3 513L900 523L900 281L886.3 263C872.7 245 845.3 209 818 201C790.7 193 763.3 213 736.2 216C709 219 682 205 654.8 215C627.7 225 600.3 259 573 275C545.7 291 518.3 289 491 282C463.7 275 436.3 263 409 261C381.7 259 354.3 267 327 260C299.7 253 272.3 231 245.2 230C218 229 191 249 163.8 253C136.7 257 109.3 245 82 235C54.7 225 27.3 217 13.7 213L0 209Z" fill="#eaebef"></path><path d="M0 601L13.7 601C27.3 601 54.7 601 82 601C109.3 601 136.7 601 163.8 601C191 601 218 601 245.2 601C272.3 601 299.7 601 327 601C354.3 601 381.7 601 409 601C436.3 601 463.7 601 491 601C518.3 601 545.7 601 573 601C600.3 601 627.7 601 654.8 601C682 601 709 601 736.2 601C763.3 601 790.7 601 818 601C845.3 601 872.7 601 886.3 601L900 601L900 521L886.3 511C872.7 501 845.3 481 818 464C790.7 447 763.3 433 736.2 419C709 405 682 391 654.8 391C627.7 391 600.3 405 573 406C545.7 407 518.3 395 491 410C463.7 425 436.3 467 409 474C381.7 481 354.3 453 327 427C299.7 401 272.3 377 245.2 369C218 361 191 369 163.8 380C136.7 391 109.3 405 82 398C54.7 391 27.3 363 13.7 349L0 335Z" fill="#e0e3e8"></path></svg>